<svg xmlns="http://www.w3.org/2000/svg" width="800" height="463" viewBox="0 0 800 463" fill="none">
<path d="M426.827 63.8312C417.164 63.8312 408.959 57.6732 405.863 49.0771H397.076C393.98 57.6732 385.775 63.8312 376.112 63.8312C372.272 63.8312 368.659 62.8597 365.505 61.1503L336.526 87.0891C337.574 89.6746 338.164 92.4939 338.164 95.4546C338.164 98.4152 337.574 101.234 336.526 103.82L365.505 129.759C368.659 128.049 372.272 127.078 376.112 127.078C385.775 127.078 393.98 133.236 397.076 141.832H405.863C408.959 133.236 417.164 127.078 426.827 127.078C439.146 127.078 449.129 137.064 449.129 149.383C449.129 161.702 439.143 171.688 426.827 171.688C417.164 171.688 408.959 165.529 405.863 156.933H397.073C393.977 165.529 385.771 171.688 376.109 171.688C363.789 171.688 353.807 161.702 353.807 149.383C353.807 146.422 354.397 143.603 355.442 141.017L326.463 115.078C323.309 116.788 319.696 117.759 315.856 117.759C303.537 117.759 293.555 107.774 293.555 95.4546C293.555 83.1354 303.54 73.1497 315.856 73.1497C319.696 73.1497 323.309 74.1213 326.463 75.8306L355.442 49.8919C354.394 47.3063 353.807 44.4871 353.807 41.5264C353.807 29.2073 363.792 19.2216 376.109 19.2216C385.771 19.2216 393.977 25.3797 397.073 33.9757H405.863C408.959 25.3797 417.164 19.2216 426.827 19.2216C439.146 19.2216 449.129 29.2073 449.129 41.5264C449.129 53.8456 439.143 63.8312 426.827 63.8312Z" fill="#3C9077"/>
<path d="M483.952 72.6744C496.369 72.6744 506.435 82.7404 506.435 95.1575C506.435 107.575 496.369 117.641 483.952 117.641C471.535 117.641 461.469 107.575 461.469 95.1575C461.469 82.7404 471.535 72.6744 483.952 72.6744Z" fill="#232323"/>
<path d="M744.836 239.844H780.779V355.54H744.836V239.844Z" fill="#232323"/>
<path d="M642.896 303.091C642.896 307.924 643.77 312.038 645.518 315.432C647.267 318.825 649.889 321.499 653.386 323.453C656.882 325.304 661.253 326.23 666.498 326.23C671.949 326.23 676.422 325.304 679.919 323.453C683.415 321.602 685.986 318.98 687.632 315.586C689.38 312.089 690.254 307.924 690.254 303.091V239.844H726.197V305.096C726.197 315.689 723.729 324.996 718.792 333.018C713.856 340.936 706.914 347.107 697.967 351.529C689.02 355.951 678.53 358.162 666.498 358.162C654.671 358.162 644.284 355.951 635.337 351.529C626.39 347.107 619.397 340.936 614.358 333.018C609.421 324.996 606.953 315.689 606.953 305.096V239.844H642.896V303.091Z" fill="#232323"/>
<path d="M523.712 358.183C509.829 358.183 497.642 355.663 487.153 350.624C476.766 345.585 468.641 338.54 462.779 329.49C457.02 320.44 454.141 309.848 454.141 297.713C454.141 285.577 457.02 274.985 462.779 265.935C468.641 256.885 476.766 249.84 487.153 244.801C497.642 239.762 509.829 237.242 523.712 237.242C537.596 237.242 549.731 239.762 560.118 244.801C570.608 249.84 578.732 256.885 584.491 265.935C590.353 274.985 593.284 285.577 593.284 297.713C593.284 309.848 590.353 320.44 584.491 329.49C578.732 338.54 570.608 345.585 560.118 350.624C549.731 355.663 537.596 358.183 523.712 358.183ZM523.712 326.251C530.603 326.251 536.516 325.12 541.452 322.857C546.492 320.492 550.348 317.201 553.022 312.984C555.696 308.665 557.033 303.575 557.033 297.713C557.033 291.851 555.696 286.811 553.022 282.595C550.348 278.276 546.492 274.985 541.452 272.722C536.516 270.357 530.603 269.174 523.712 269.174C516.822 269.174 510.857 270.357 505.818 272.722C500.882 274.985 497.077 278.276 494.403 282.595C491.729 286.811 490.392 291.851 490.392 297.713C490.392 303.575 491.729 308.665 494.403 312.984C497.077 317.201 500.882 320.492 505.818 322.857C510.857 325.12 516.822 326.251 523.712 326.251Z" fill="#232323"/>
<path d="M340.343 334.714V306.022H419.634V334.714H340.343ZM404.362 239.844L456.194 355.54H417.783L375.824 255.424H385.542L343.429 355.54H305.172L356.849 239.844H404.362Z" fill="#232323"/>
<path d="M169.242 239.844H205.185V355.54H169.242V239.844ZM205.185V239.844H169.242V239.844ZM259.331 239.844H295.274V355.54H259.331V239.844ZM189.45 280.723H273.831V312.501H189.45V280.723Z" fill="#232323"/>
<path d="M154.66 306.351C153.426 316.635 149.827 325.685 143.862 333.501C138 341.317 130.184 347.385 120.414 351.704C110.747 356.023 99.6402 358.183 87.0937 358.183C73.5187 358.183 61.6406 355.663 51.4593 350.624C41.2781 345.585 33.3594 338.54 27.7031 329.49C22.0469 320.44 19.2188 309.848 19.2188 297.713C19.2188 285.577 22.0469 274.985 27.7031 265.935C33.3594 256.885 41.2781 249.84 51.4593 244.801C61.6406 239.762 73.5187 237.242 87.0937 237.242C99.6402 237.242 110.747 239.402 120.414 243.721C130.184 248.04 138 254.108 143.862 261.924C149.827 269.637 153.426 278.687 154.66 289.074H118.563C117.535 284.652 115.632 280.898 112.855 277.813C110.181 274.625 106.685 272.208 102.366 270.563C98.0462 268.814 92.9556 267.94 87.0937 267.94C80.5118 267.94 74.8556 269.123 70.1249 271.488C65.3943 273.854 61.7434 277.299 59.1724 281.824C56.6014 286.246 55.3159 291.542 55.3159 297.713C55.3159 303.883 56.6014 309.179 59.1724 313.601C61.7434 318.024 65.3943 321.469 70.1249 323.937C74.8556 326.302 80.5118 327.485 87.0937 327.485C92.9556 327.485 98.0462 326.714 102.366 325.171C106.685 323.526 110.181 321.109 112.855 317.921C115.632 314.733 117.535 310.876 118.563 306.351H154.66Z" fill="#232323"/>
<path d="M738.977 442.193V388.664H746.227V442.193H738.977ZM773.531 442.193V388.664H780.781V442.193H773.531ZM743.913 417.819V411.186H775.305V417.819H743.913Z" fill="#3C9077"/>
<path d="M712.087 442.952C709.311 442.952 706.791 442.386 704.529 441.255C702.317 440.072 700.543 438.453 699.207 436.396C697.87 434.339 697.124 431.999 696.97 429.377V418.347C697.124 415.673 697.87 413.334 699.207 411.328C700.595 409.272 702.395 407.678 704.606 406.546C706.868 405.364 709.362 404.772 712.087 404.772C715.43 404.772 718.438 405.621 721.112 407.318C723.837 409.014 725.971 411.303 727.513 414.182C729.056 417.062 729.827 420.301 729.827 423.901C729.827 427.5 729.056 430.74 727.513 433.619C725.971 436.499 723.837 438.787 721.112 440.484C718.438 442.129 715.43 442.952 712.087 442.952ZM692.805 442.181V387.109H699.746V414.491L698.435 423.361L699.746 432.308V442.181H692.805ZM710.93 436.396C713.244 436.396 715.275 435.856 717.024 434.776C718.772 433.696 720.16 432.231 721.189 430.38C722.217 428.477 722.731 426.292 722.731 423.824C722.731 421.407 722.217 419.247 721.189 417.345C720.16 415.442 718.772 413.977 717.024 412.948C715.275 411.868 713.27 411.328 711.008 411.328C708.694 411.328 706.662 411.868 704.914 412.948C703.166 413.977 701.803 415.442 700.826 417.345C699.849 419.247 699.361 421.432 699.361 423.901C699.361 426.317 699.824 428.477 700.749 430.38C701.726 432.231 703.089 433.696 704.837 434.776C706.637 435.856 708.668 436.396 710.93 436.396Z" fill="#3C9077"/>
<path d="M626.844 442.213V405.576H633.786V442.213H626.844ZM651.603 442.213V420.077C651.603 417.351 650.754 415.217 649.057 413.675C647.412 412.081 645.329 411.284 642.81 411.284C641.113 411.284 639.596 411.644 638.259 412.363C636.922 413.083 635.842 414.086 635.02 415.372C634.197 416.657 633.786 418.2 633.786 419.999L630.932 418.611C630.932 415.834 631.523 413.418 632.706 411.361C633.94 409.304 635.611 407.71 637.719 406.579C639.827 405.396 642.193 404.805 644.815 404.805C647.386 404.805 649.7 405.37 651.757 406.502C653.865 407.633 655.511 409.227 656.693 411.284C657.927 413.34 658.544 415.783 658.544 418.611V442.213H651.603ZM676.362 442.213V420.077C676.362 417.351 675.513 415.217 673.816 413.675C672.171 412.081 670.114 411.284 667.646 411.284C665.949 411.284 664.406 411.644 663.018 412.363C661.681 413.083 660.601 414.086 659.779 415.372C658.956 416.657 658.544 418.2 658.544 419.999L654.611 418.611C654.765 415.783 655.511 413.366 656.848 411.361C658.236 409.304 660.01 407.71 662.17 406.579C664.329 405.396 666.695 404.805 669.266 404.805C671.939 404.805 674.33 405.37 676.439 406.502C678.547 407.633 680.218 409.227 681.452 411.284C682.738 413.34 683.38 415.809 683.38 418.688V442.213H676.362Z" fill="#3C9077"/>
<path d="M592.653 443.032C588.899 443.032 585.377 442.338 582.086 440.95C578.847 439.51 575.993 437.53 573.525 435.011C571.108 432.491 569.205 429.56 567.817 426.218C566.429 422.875 565.734 419.276 565.734 415.419C565.734 411.563 566.429 407.989 567.817 404.698C569.205 401.356 571.134 398.425 573.602 395.905C576.07 393.386 578.949 391.432 582.24 390.043C585.583 388.655 589.208 387.961 593.116 387.961C597.384 387.961 601.317 388.784 604.917 390.429C608.516 392.075 611.524 394.44 613.941 397.525L608.928 402.539C607.231 400.07 604.994 398.194 602.217 396.908C599.44 395.571 596.407 394.903 593.116 394.903C589.208 394.903 585.737 395.777 582.703 397.525C579.721 399.273 577.381 401.69 575.684 404.775C574.039 407.861 573.216 411.409 573.216 415.419C573.216 419.482 574.064 423.055 575.761 426.141C577.458 429.226 579.746 431.643 582.626 433.391C585.506 435.139 588.796 436.013 592.499 436.013C596.252 436.013 599.492 435.293 602.217 433.854C604.994 432.414 607.128 430.306 608.619 427.529C610.11 424.701 610.856 421.256 610.856 417.193L615.252 420.356H592.113V413.723H618.337V414.802C618.337 421.024 617.232 426.243 615.021 430.46C612.861 434.625 609.827 437.762 605.919 439.87C602.063 441.978 597.641 443.032 592.653 443.032Z" fill="#3C9077"/>
</svg>
